<?xml version="1.0" standalone="no"?>
<!DOCTYPE svg PUBLIC "-//W3C//DTD SVG 20010904//EN"
 "http://www.w3.org/TR/2001/REC-SVG-20010904/DTD/svg10.dtd">
<svg version="1.0" xmlns="http://www.w3.org/2000/svg"
 width="448.000000pt" height="448.000000pt" viewBox="0 0 448.000000 448.000000"
 preserveAspectRatio="xMidYMid meet">
<metadata>
Created by potrace 1.11, written by Peter Selinger 2001-2013
</metadata>
<g transform="translate(0.000000,448.000000) scale(0.100000,-0.100000)"
fill="#000000" stroke="none">
<path d="M2185 4233 c-42 -11 -53 -66 -15 -78 9 -3 29 -1 43 4 50 19 128 -28
143 -87 4 -13 4 -41 1 -63 -15 -114 -170 -139 -223 -36 -9 16 -15 49 -14 76 3
63 2 68 -15 75 -44 16 -70 -44 -55 -125 13 -66 36 -102 94 -141 19 -13 -23
-53 -81 -77 -32 -14 -85 -37 -118 -52 -33 -15 -94 -41 -135 -59 -41 -18 -97
-43 -125 -55 -27 -13 -148 -67 -269 -120 -120 -53 -237 -104 -260 -114 -22
-11 -69 -31 -104 -47 -34 -15 -61 -33 -59 -38 5 -19 127 -75 187 -88 56 -11
57 -12 38 -28 -25 -20 -27 -64 -4 -89 14 -15 31 -19 90 -18 40 0 77 -3 83 -6
6 -4 10 -67 10 -162 0 -137 -2 -155 -16 -152 -9 1 -61 -20 -116 -49 -55 -28
-181 -93 -280 -144 -99 -51 -229 -118 -290 -148 -126 -64 -127 -62 40 -85 50
-7 90 -17 90 -22 2 -31 19 -56 43 -62 15 -3 78 -6 140 -6 l112 0 0 -181 -1
-181 -77 -50 c-42 -27 -97 -62 -121 -77 -76 -50 -134 -76 -456 -208 -224 -92
-241 -100 -189 -94 14 1 56 4 93 6 64 2 69 1 92 -26 l25 -28 139 -2 140 -1 0
-187 c1 -187 1 -187 -22 -193 -13 -3 -23 -11 -24 -18 -1 -6 -2 -28 -3 -47 -2
-50 -9 -56 -60 -52 l-46 4 0 48 c0 26 -6 52 -13 58 -14 12 -206 11 -225 -1 -7
-5 -12 -29 -12 -58 0 -27 -4 -49 -10 -50 -5 0 -29 -1 -52 -1 l-42 -1 -2 52
c-1 29 -5 55 -9 59 -10 11 -206 12 -226 1 -16 -8 -19 -22 -19 -99 0 -76 3 -91
18 -99 27 -14 27 -98 1 -114 -30 -19 -25 -137 5 -137 21 0 18 -52 -4 -67 -18
-13 -20 -25 -20 -122 0 -70 4 -111 12 -119 9 -9 519 -12 2234 -12 2017 0 2222
1 2228 16 8 20 8 768 0 788 -5 13 -25 16 -119 16 -77 0 -116 -4 -121 -12 -4
-6 -6 -33 -5 -60 l2 -48 -54 0 -54 0 -2 51 c-1 29 -4 56 -7 60 -6 10 -204 12
-228 3 -12 -5 -16 -20 -16 -61 l0 -54 -52 3 -53 3 -1 41 c-1 54 -10 74 -33 74
-18 0 -19 9 -17 168 l1 167 115 2 c63 0 130 2 148 2 42 1 72 32 72 74 0 42
-26 67 -105 97 -164 63 -480 235 -570 310 -12 10 -15 44 -15 185 l0 172 113 1
c150 0 151 0 170 14 24 18 30 73 9 91 -9 8 -64 39 -122 69 -58 31 -123 66
-145 78 -22 13 -49 28 -61 34 -12 7 -28 18 -36 26 -8 8 -34 31 -58 50 -24 19
-67 63 -96 97 l-53 63 1 155 0 155 37 1 c20 0 61 1 91 0 81 0 96 5 110 40 12
27 11 33 -6 49 -10 10 -73 39 -139 65 -172 68 -364 168 -459 239 -82 62 -204
180 -323 313 l-65 73 31 26 c165 138 33 409 -174 357z"/>
</g>
</svg>
